M48
;Layer_Color=9474304
;FILE_FORMAT=4:4
METRIC,LZ
;TYPE=PLATED
T01F00S00C0.3000
T02F00S00C4.5000
%
T01
X00005Y00015
Y00025
Y00035
Y00045
Y00055
Y00065
Y00075
Y00085
Y00095
Y00105
Y00115
Y00125
Y00135
X00014Y0013569
Y0012615
Y0011661
Y0010707
Y0009753
Y0008799
Y0007845
Y0006891
Y0005937
Y0004983
X00013584Y00040299
X00014Y00030749
X0003Y0002
Y0001
X0002
X0004
X0005
X0006
Y0002
X0007
Y0003
X0008
Y0002
X0009
Y0003
Y0004
Y0005
Y0006
Y0007
X001
X0011
X0012
Y0006
X0011
X001
Y0005
X0011
Y0004
X0012
Y0003
X0011
Y0002
X0012
X0013
X0014
X0015
X0016
X0017
X0018
Y0003
Y0004
X0019
Y0005
Y0006
X0018
Y0007
X0019
X00169062Y00065643
X00176Y0005
X00169062Y00034357
X0017Y0001
X0016
X0015
X0014
X0013
X0012
X0011
X001
Y0002
Y0003
Y0004
X0008
X0007
Y0005
X0008
Y0006
Y0007
X0006Y0005
Y0004
X0005
X0007Y0001
X0008
X0009
X00130939Y00034357
X00124Y0005
X00130939Y00065643
X0019Y0003
Y0002
Y0001
X0018
X00014Y0014523
X00005Y00145
Y00155
X00014Y0015477
Y0016431
Y0017385
Y0018339
Y0019293
X00005Y00195
Y00185
Y00175
Y00165
X00286Y0016431
Y0015477
X00295Y00155
Y00165
Y00175
Y00185
Y00195
X00286Y0019293
Y0018339
Y0017385
Y0014523
X00295Y00145
Y00135
X00286Y0013569
Y0012615
Y0011661
Y0010707
Y0009753
Y0008799
Y0007845
Y0006891
Y0005937
Y0004983
X00286416Y00040299
X00286Y00030749
X00295Y00035
Y00045
Y00055
Y00065
Y00075
Y00085
Y00095
Y00105
Y00115
Y00125
Y00025
Y00015
X0028Y0001
X0027
Y0002
X0026Y0001
X0025
X0024
Y0002
X0023
Y0003
Y0004
Y0005
X0024
Y0004
X0025
X0022
X0021
Y0005
X0022
Y0006
X0021
Y0007
X0022
X002
Y0006
Y0005
Y0004
Y0003
Y0002
X0021
Y0003
X0022
Y0002
Y0001
X0021
X002
X0023
X0022Y0023
X0021
X002
Y0024
X0021
X0022
Y0025
X0021
Y0026
X0022
X0023
Y0025
X0024
Y0026
Y0028
X0023
Y0027
X0022
X0021
X002
Y0026
Y0025
Y0028
X0021
X0022
Y0029
X0021
X002
X0023
X0024
X0026
X0027
Y0028
X0028Y0029
X00295Y00285
Y00275
Y00265
Y00255
Y00245
Y00235
Y00225
Y00215
Y00205
X00286Y0020247
Y0021201
Y0022155
Y0023109
Y0024063
Y0025017
X00286416Y00259701
X00286Y0026925
X0019Y0027
Y0026
Y0025
Y0024
Y0023
X0018Y00235
X00169062Y00234357
X00175Y0025
X0018Y0026
Y0027
Y0028
X0017
X0016
X0015
X0014
X0013
X0012
X0011
Y0027
X0012
Y0026
X0011
Y0025
Y0024
Y0023
X001
X0009
X0008
Y0024
X0009
X001
Y0025
Y0026
X0009
Y0025
X0008
X0007
Y0026
X0008
Y0027
X0007
Y0028
X0008
X0009
Y0027
X001
Y0028
Y0029
X0011
X0012
X0013
X0014
X0015
X0016
X0017
X0018
X0019
Y0028
X00169062Y00265643
X00130939
X00124Y0025
X0012Y00235
X00130939Y00234357
X0006Y0025
Y0026
Y0028
Y0029
X0005
X0004
X0003
X0002
X00004805Y0028587
X00005Y00275
Y00265
Y00255
Y00245
Y00235
Y00225
Y00215
Y00205
X00014Y0020247
Y0021201
Y0022155
Y0023109
Y0024063
Y0025017
X00013584Y00259701
X00014Y0026925
X0003Y0028
X0007Y0029
X0008
X0009
T02
X0015Y0005
Y0025
M30
