G04*
G04 #@! TF.GenerationSoftware,Altium Limited,Altium Designer,25.8.1 (18)*
G04*
G04 Layer_Color=8388736*
%FSLAX44Y44*%
%MOMM*%
G71*
G04*
G04 #@! TF.SameCoordinates,7AC70985-3225-4021-8946-4E56F3AA033F*
G04*
G04*
G04 #@! TF.FilePolarity,Negative*
G04*
G01*
G75*
G04:AMPARAMS|DCode=15|XSize=0.7mm|YSize=1.3mm|CornerRadius=0mm|HoleSize=0mm|Usage=FLASHONLY|Rotation=315.000|XOffset=0mm|YOffset=0mm|HoleType=Round|Shape=Rectangle|*
%AMROTATEDRECTD15*
4,1,4,-0.7071,-0.2121,0.2121,0.7071,0.7071,0.2121,-0.2121,-0.7071,-0.7071,-0.2121,0.0*
%
%ADD15ROTATEDRECTD15*%

%ADD16R,1.0000X0.3500*%
%ADD17R,0.5000X0.3000*%
%ADD18R,0.6700X0.3000*%
G04:AMPARAMS|DCode=19|XSize=1.5532mm|YSize=1.2032mm|CornerRadius=0mm|HoleSize=0mm|Usage=FLASHONLY|Rotation=315.000|XOffset=0mm|YOffset=0mm|HoleType=Round|Shape=Rectangle|*
%AMROTATEDRECTD19*
4,1,4,-0.9745,0.1237,-0.1237,0.9745,0.9745,-0.1237,0.1237,-0.9745,-0.9745,0.1237,0.0*
%
%ADD19ROTATEDRECTD19*%

%ADD20O,6.2032X5.2032*%
%ADD21C,0.4800*%
%ADD22C,0.5032*%
G36*
X300000Y256995D02*
Y43253D01*
X297700Y42300D01*
X260000Y80000D01*
Y220000D01*
X297875Y257875D01*
X300000Y256995D01*
D02*
G37*
G36*
X40000Y220000D02*
Y80000D01*
X2125Y42125D01*
X0Y43005D01*
Y256995D01*
X2125Y257875D01*
X40000Y220000D01*
D02*
G37*
G36*
X225000Y245000D02*
X185000D01*
Y230000D01*
Y75000D01*
Y55000D01*
X225000D01*
Y0D01*
X75000D01*
Y55000D01*
X115000D01*
Y75000D01*
Y230000D01*
Y245000D01*
X75000D01*
Y300000D01*
X225000D01*
Y245000D01*
D02*
G37*
D15*
X248283Y276717D02*
D03*
X261717Y263283D02*
D03*
X38282Y36718D02*
D03*
X51718Y23282D02*
D03*
D16*
X65500Y65250D02*
D03*
Y234750D02*
D03*
X234500Y234750D02*
D03*
Y65250D02*
D03*
D17*
X93500Y78000D02*
D03*
Y84000D02*
D03*
Y90000D02*
D03*
Y96000D02*
D03*
Y102000D02*
D03*
Y108000D02*
D03*
Y114000D02*
D03*
Y120000D02*
D03*
Y126000D02*
D03*
Y132000D02*
D03*
Y138000D02*
D03*
Y144000D02*
D03*
Y150000D02*
D03*
Y156000D02*
D03*
Y162000D02*
D03*
Y168000D02*
D03*
Y174000D02*
D03*
Y180000D02*
D03*
Y186000D02*
D03*
Y192000D02*
D03*
Y198000D02*
D03*
Y204000D02*
D03*
Y210000D02*
D03*
Y216000D02*
D03*
Y222000D02*
D03*
X206500Y222000D02*
D03*
Y216000D02*
D03*
Y210000D02*
D03*
Y204000D02*
D03*
Y198000D02*
D03*
Y192000D02*
D03*
Y186000D02*
D03*
Y180000D02*
D03*
Y174000D02*
D03*
Y168000D02*
D03*
Y162000D02*
D03*
Y156000D02*
D03*
Y150000D02*
D03*
Y144000D02*
D03*
Y138000D02*
D03*
Y132000D02*
D03*
Y126000D02*
D03*
Y120000D02*
D03*
Y114000D02*
D03*
Y108000D02*
D03*
Y102000D02*
D03*
Y96000D02*
D03*
Y90000D02*
D03*
Y84000D02*
D03*
Y78000D02*
D03*
D18*
X62850Y75000D02*
D03*
Y81000D02*
D03*
Y87000D02*
D03*
Y93000D02*
D03*
Y99000D02*
D03*
Y105000D02*
D03*
Y111000D02*
D03*
Y117000D02*
D03*
Y123000D02*
D03*
Y129000D02*
D03*
Y135000D02*
D03*
Y141000D02*
D03*
Y147000D02*
D03*
Y153000D02*
D03*
Y159000D02*
D03*
Y165000D02*
D03*
Y171000D02*
D03*
Y177000D02*
D03*
Y183000D02*
D03*
Y189000D02*
D03*
Y195000D02*
D03*
Y201000D02*
D03*
Y207000D02*
D03*
Y213000D02*
D03*
Y219000D02*
D03*
Y225000D02*
D03*
X237150Y225000D02*
D03*
Y219000D02*
D03*
Y213000D02*
D03*
Y207000D02*
D03*
Y201000D02*
D03*
Y195000D02*
D03*
Y189000D02*
D03*
Y183000D02*
D03*
Y177000D02*
D03*
Y171000D02*
D03*
Y165000D02*
D03*
Y159000D02*
D03*
Y153000D02*
D03*
Y147000D02*
D03*
Y141000D02*
D03*
Y135000D02*
D03*
Y129000D02*
D03*
Y123000D02*
D03*
Y117000D02*
D03*
Y111000D02*
D03*
Y105000D02*
D03*
Y99000D02*
D03*
Y93000D02*
D03*
Y87000D02*
D03*
Y81000D02*
D03*
Y75000D02*
D03*
D19*
X38697Y264697D02*
D03*
X49303Y275303D02*
D03*
X261303Y35303D02*
D03*
X250697Y24697D02*
D03*
D20*
X150000Y250000D02*
D03*
Y50000D02*
D03*
D21*
X180000Y60000D02*
D03*
X120000D02*
D03*
X180000Y40000D02*
D03*
X120000D02*
D03*
Y235000D02*
D03*
X180000D02*
D03*
Y260000D02*
D03*
X120000D02*
D03*
X180000Y70000D02*
D03*
X120000D02*
D03*
X220000Y50000D02*
D03*
X210000D02*
D03*
X200000D02*
D03*
X190000D02*
D03*
X110000D02*
D03*
X100000D02*
D03*
X90000D02*
D03*
X80000D02*
D03*
Y40000D02*
D03*
X90000D02*
D03*
X100000D02*
D03*
X110000D02*
D03*
X190000D02*
D03*
X200000D02*
D03*
X210000D02*
D03*
X220000D02*
D03*
Y30000D02*
D03*
X210000D02*
D03*
X200000D02*
D03*
X190000D02*
D03*
X180000D02*
D03*
X120000D02*
D03*
X110000D02*
D03*
X100000D02*
D03*
X90000D02*
D03*
X80000D02*
D03*
Y20000D02*
D03*
X90000D02*
D03*
X100000D02*
D03*
X110000D02*
D03*
X120000D02*
D03*
X130000D02*
D03*
X140000D02*
D03*
X150000D02*
D03*
X160000D02*
D03*
X170000D02*
D03*
X180000D02*
D03*
X190000D02*
D03*
X200000D02*
D03*
X210000D02*
D03*
X220000D02*
D03*
Y10000D02*
D03*
X210000D02*
D03*
X200000D02*
D03*
X190000D02*
D03*
X180000D02*
D03*
X170000D02*
D03*
X160000D02*
D03*
X150000D02*
D03*
X140000D02*
D03*
X130000D02*
D03*
X120000D02*
D03*
X110000D02*
D03*
X100000D02*
D03*
X90000D02*
D03*
X80000D02*
D03*
X220000Y250000D02*
D03*
X210000D02*
D03*
X200000D02*
D03*
X190000D02*
D03*
X110000D02*
D03*
X100000D02*
D03*
X90000D02*
D03*
X80000D02*
D03*
Y260000D02*
D03*
X90000D02*
D03*
X100000D02*
D03*
X110000D02*
D03*
X190000D02*
D03*
X200000D02*
D03*
X210000D02*
D03*
X220000D02*
D03*
Y270000D02*
D03*
X210000D02*
D03*
X200000D02*
D03*
X190000D02*
D03*
X180000D02*
D03*
X120000D02*
D03*
X110000D02*
D03*
X100000D02*
D03*
X90000D02*
D03*
X80000D02*
D03*
Y280000D02*
D03*
X90000D02*
D03*
X100000D02*
D03*
X110000D02*
D03*
X120000D02*
D03*
X130000D02*
D03*
X140000D02*
D03*
X150000D02*
D03*
X160000D02*
D03*
X170000D02*
D03*
X180000D02*
D03*
X190000D02*
D03*
X200000D02*
D03*
X210000D02*
D03*
X220000D02*
D03*
Y290000D02*
D03*
X210000D02*
D03*
X200000D02*
D03*
X190000D02*
D03*
X180000D02*
D03*
X170000D02*
D03*
X160000D02*
D03*
X150000D02*
D03*
X140000D02*
D03*
X130000D02*
D03*
X120000D02*
D03*
X110000D02*
D03*
X100000D02*
D03*
X90000D02*
D03*
X80000D02*
D03*
D22*
X169062Y34357D02*
D03*
X130939D02*
D03*
M02*
