G04*
G04 #@! TF.GenerationSoftware,Altium Limited,Altium Designer,25.8.1 (18)*
G04*
G04 Layer_Color=8388736*
%FSLAX44Y44*%
%MOMM*%
G71*
G04*
G04 #@! TF.SameCoordinates,EA15CCC8-5DA6-4286-B6DC-50CED7DD3932*
G04*
G04*
G04 #@! TF.FilePolarity,Negative*
G04*
G01*
G75*
%ADD14R,1.0000X0.3500*%
%ADD15R,0.5000X0.3000*%
%ADD16R,0.6700X0.3000*%
%ADD17R,0.7000X1.3000*%
%ADD19R,1.2032X1.5532*%
%ADD20O,6.2032X5.2032*%
D14*
X65500Y65250D02*
D03*
Y234750D02*
D03*
X234500Y234750D02*
D03*
Y65250D02*
D03*
D15*
X93500Y78000D02*
D03*
Y84000D02*
D03*
Y90000D02*
D03*
Y96000D02*
D03*
Y102000D02*
D03*
Y108000D02*
D03*
Y114000D02*
D03*
Y120000D02*
D03*
Y126000D02*
D03*
Y132000D02*
D03*
Y138000D02*
D03*
Y144000D02*
D03*
Y150000D02*
D03*
Y156000D02*
D03*
Y162000D02*
D03*
Y168000D02*
D03*
Y174000D02*
D03*
Y180000D02*
D03*
Y186000D02*
D03*
Y192000D02*
D03*
Y198000D02*
D03*
Y204000D02*
D03*
Y210000D02*
D03*
Y216000D02*
D03*
Y222000D02*
D03*
X206500Y222000D02*
D03*
Y216000D02*
D03*
Y210000D02*
D03*
Y204000D02*
D03*
Y198000D02*
D03*
Y192000D02*
D03*
Y186000D02*
D03*
Y180000D02*
D03*
Y174000D02*
D03*
Y168000D02*
D03*
Y162000D02*
D03*
Y156000D02*
D03*
Y150000D02*
D03*
Y144000D02*
D03*
Y138000D02*
D03*
Y132000D02*
D03*
Y126000D02*
D03*
Y120000D02*
D03*
Y114000D02*
D03*
Y108000D02*
D03*
Y102000D02*
D03*
Y96000D02*
D03*
Y90000D02*
D03*
Y84000D02*
D03*
Y78000D02*
D03*
D16*
X62850Y75000D02*
D03*
Y81000D02*
D03*
Y87000D02*
D03*
Y93000D02*
D03*
Y99000D02*
D03*
Y105000D02*
D03*
Y111000D02*
D03*
Y117000D02*
D03*
Y123000D02*
D03*
Y129000D02*
D03*
Y135000D02*
D03*
Y141000D02*
D03*
Y147000D02*
D03*
Y153000D02*
D03*
Y159000D02*
D03*
Y165000D02*
D03*
Y171000D02*
D03*
Y177000D02*
D03*
Y183000D02*
D03*
Y189000D02*
D03*
Y195000D02*
D03*
Y201000D02*
D03*
Y207000D02*
D03*
Y213000D02*
D03*
Y219000D02*
D03*
Y225000D02*
D03*
X237150Y225000D02*
D03*
Y219000D02*
D03*
Y213000D02*
D03*
Y207000D02*
D03*
Y201000D02*
D03*
Y195000D02*
D03*
Y189000D02*
D03*
Y183000D02*
D03*
Y177000D02*
D03*
Y171000D02*
D03*
Y165000D02*
D03*
Y159000D02*
D03*
Y153000D02*
D03*
Y147000D02*
D03*
Y141000D02*
D03*
Y135000D02*
D03*
Y129000D02*
D03*
Y123000D02*
D03*
Y117000D02*
D03*
Y111000D02*
D03*
Y105000D02*
D03*
Y99000D02*
D03*
Y93000D02*
D03*
Y87000D02*
D03*
Y81000D02*
D03*
Y75000D02*
D03*
D17*
X219500Y260000D02*
D03*
X200500D02*
D03*
X219500Y40000D02*
D03*
X200500D02*
D03*
D19*
X97500Y260000D02*
D03*
X82500D02*
D03*
X97500Y40000D02*
D03*
X82500D02*
D03*
D20*
X150000Y250000D02*
D03*
Y50000D02*
D03*
M02*
