G04*
G04 #@! TF.GenerationSoftware,Altium Limited,Altium Designer,25.8.1 (18)*
G04*
G04 Layer_Physical_Order=4*
G04 Layer_Color=16711680*
%FSLAX44Y44*%
%MOMM*%
G71*
G04*
G04 #@! TF.SameCoordinates,EA15CCC8-5DA6-4286-B6DC-50CED7DD3932*
G04*
G04*
G04 #@! TF.FilePolarity,Positive*
G04*
G01*
G75*
%ADD21C,0.2320*%
%ADD22O,6.0000X5.0000*%
%ADD23C,0.3000*%
%ADD24C,0.7000*%
G36*
X300000Y0D02*
X0D01*
Y300000D01*
X300000D01*
Y0D01*
D02*
G37*
%LPC*%
G36*
X155000Y277625D02*
X145000D01*
X140679Y277285D01*
X136463Y276273D01*
X132458Y274614D01*
X128762Y272349D01*
X125466Y269534D01*
X122651Y266238D01*
X120386Y262542D01*
X118727Y258537D01*
X117715Y254321D01*
X117375Y250000D01*
X117715Y245679D01*
X118727Y241463D01*
X120386Y237458D01*
X122651Y233762D01*
X125466Y230466D01*
X128762Y227651D01*
X132458Y225386D01*
X136463Y223727D01*
X140679Y222715D01*
X145000Y222375D01*
X155000D01*
X159321Y222715D01*
X163537Y223727D01*
X167542Y225386D01*
X171238Y227651D01*
X174534Y230466D01*
X177349Y233762D01*
X179614Y237458D01*
X181273Y241463D01*
X182285Y245679D01*
X182625Y250000D01*
X182285Y254321D01*
X181273Y258537D01*
X179614Y262542D01*
X177349Y266238D01*
X174534Y269534D01*
X171238Y272349D01*
X167542Y274614D01*
X163537Y276273D01*
X159321Y277285D01*
X155000Y277625D01*
D02*
G37*
G36*
X287201Y275290D02*
X284799D01*
X282579Y274371D01*
X280879Y272672D01*
X279960Y270452D01*
Y269827D01*
X279929Y269725D01*
X279903Y269446D01*
X279874Y269265D01*
X279838Y269104D01*
X279795Y268962D01*
X279747Y268837D01*
X279695Y268725D01*
X279637Y268622D01*
X279580Y268539D01*
X276438Y265397D01*
X275688Y264273D01*
X230887Y219473D01*
X69911D01*
X20505Y268878D01*
X20434Y268979D01*
X20360Y269102D01*
X20290Y269238D01*
X20225Y269388D01*
X20164Y269555D01*
X20109Y269741D01*
X20061Y269947D01*
X20040Y270063D01*
Y270452D01*
X19120Y272672D01*
X17421Y274371D01*
X15201Y275290D01*
X12799D01*
X10579Y274371D01*
X8880Y272672D01*
X7960Y270452D01*
Y268049D01*
X8880Y265829D01*
X10025Y264684D01*
X8464Y263123D01*
X7544Y260903D01*
Y258500D01*
X8464Y256280D01*
X10016Y254728D01*
X8880Y253592D01*
X7960Y251372D01*
Y248969D01*
X8880Y246749D01*
X10228Y245400D01*
X8880Y244052D01*
X7960Y241832D01*
Y239429D01*
X8880Y237209D01*
X10228Y235860D01*
X8880Y234512D01*
X7960Y232292D01*
Y229889D01*
X8880Y227669D01*
X10228Y226320D01*
X8880Y224972D01*
X7960Y222752D01*
Y220349D01*
X8880Y218129D01*
X10228Y216780D01*
X8880Y215432D01*
X7960Y213212D01*
Y210809D01*
X8880Y208589D01*
X10228Y207240D01*
X8880Y205892D01*
X7960Y203672D01*
Y201269D01*
X8880Y199049D01*
X10228Y197700D01*
X8880Y196352D01*
X7960Y194132D01*
Y191729D01*
X8880Y189509D01*
X10228Y188160D01*
X8880Y186812D01*
X7960Y184592D01*
Y182189D01*
X8880Y179969D01*
X10228Y178620D01*
X8880Y177271D01*
X7960Y175051D01*
Y172649D01*
X8880Y170429D01*
X10228Y169080D01*
X8880Y167731D01*
X7960Y165511D01*
Y163109D01*
X8880Y160889D01*
X10228Y159540D01*
X8880Y158191D01*
X7960Y155971D01*
Y153569D01*
X8880Y151349D01*
X10228Y150000D01*
X8880Y148651D01*
X7960Y146431D01*
Y144029D01*
X8880Y141809D01*
X10228Y140460D01*
X8880Y139111D01*
X7960Y136891D01*
Y134488D01*
X8880Y132268D01*
X10228Y130920D01*
X8880Y129571D01*
X7960Y127351D01*
Y124949D01*
X8880Y122729D01*
X10228Y121380D01*
X8880Y120031D01*
X7960Y117811D01*
Y115408D01*
X8880Y113188D01*
X10228Y111840D01*
X8880Y110491D01*
X7960Y108271D01*
Y105868D01*
X8880Y103648D01*
X10228Y102300D01*
X8880Y100951D01*
X7960Y98731D01*
Y96328D01*
X8880Y94108D01*
X10228Y92760D01*
X8880Y91411D01*
X7960Y89191D01*
Y86788D01*
X8880Y84568D01*
X10228Y83220D01*
X8880Y81871D01*
X7960Y79651D01*
Y77248D01*
X8880Y75028D01*
X10228Y73680D01*
X8880Y72331D01*
X7960Y70111D01*
Y67708D01*
X8880Y65488D01*
X10228Y64140D01*
X8880Y62791D01*
X7960Y60571D01*
Y58168D01*
X8880Y55948D01*
X10228Y54600D01*
X8880Y53251D01*
X7960Y51031D01*
Y48628D01*
X8880Y46408D01*
X10016Y45272D01*
X8464Y43720D01*
X7544Y41500D01*
Y39097D01*
X8464Y36877D01*
X10025Y35316D01*
X8880Y34171D01*
X7960Y31951D01*
Y29548D01*
X8880Y27328D01*
X10579Y25629D01*
X12799Y24709D01*
X15201D01*
X17421Y25629D01*
X19120Y27328D01*
X20040Y29548D01*
Y29937D01*
X20061Y30053D01*
X20109Y30259D01*
X20164Y30444D01*
X20225Y30612D01*
X20290Y30762D01*
X20360Y30898D01*
X20434Y31021D01*
X20505Y31122D01*
X70011Y80627D01*
X230414D01*
X279580Y31461D01*
X279637Y31378D01*
X279695Y31275D01*
X279747Y31163D01*
X279795Y31038D01*
X279838Y30896D01*
X279874Y30736D01*
X279903Y30554D01*
X279929Y30275D01*
X279960Y30173D01*
Y29548D01*
X280879Y27328D01*
X282579Y25629D01*
X284799Y24709D01*
X287201D01*
X289421Y25629D01*
X291120Y27328D01*
X292040Y29548D01*
Y31951D01*
X291120Y34171D01*
X289975Y35316D01*
X291536Y36877D01*
X292456Y39097D01*
Y41500D01*
X291536Y43720D01*
X289984Y45272D01*
X291120Y46408D01*
X292040Y48628D01*
Y51031D01*
X291120Y53251D01*
X289772Y54600D01*
X291120Y55948D01*
X292040Y58168D01*
Y60571D01*
X291120Y62791D01*
X289772Y64140D01*
X291120Y65488D01*
X292040Y67708D01*
Y70111D01*
X291120Y72331D01*
X289772Y73680D01*
X291120Y75028D01*
X292040Y77248D01*
Y79651D01*
X291120Y81871D01*
X289772Y83220D01*
X291120Y84568D01*
X292040Y86788D01*
Y89191D01*
X291120Y91411D01*
X289772Y92760D01*
X291120Y94108D01*
X292040Y96328D01*
Y98731D01*
X291120Y100951D01*
X289772Y102300D01*
X291120Y103648D01*
X292040Y105868D01*
Y108271D01*
X291120Y110491D01*
X289772Y111840D01*
X291120Y113188D01*
X292040Y115408D01*
Y117811D01*
X291120Y120031D01*
X289772Y121380D01*
X291120Y122729D01*
X292040Y124949D01*
Y127351D01*
X291120Y129571D01*
X289772Y130920D01*
X291120Y132268D01*
X292040Y134488D01*
Y136891D01*
X291120Y139111D01*
X289772Y140460D01*
X291120Y141809D01*
X292040Y144029D01*
Y146431D01*
X291120Y148651D01*
X289772Y150000D01*
X291120Y151349D01*
X292040Y153569D01*
Y155971D01*
X291120Y158191D01*
X289772Y159540D01*
X291120Y160889D01*
X292040Y163109D01*
Y165511D01*
X291120Y167731D01*
X289772Y169080D01*
X291120Y170429D01*
X292040Y172649D01*
Y175051D01*
X291120Y177271D01*
X289772Y178620D01*
X291120Y179969D01*
X292040Y182189D01*
Y184592D01*
X291120Y186812D01*
X289772Y188160D01*
X291120Y189509D01*
X292040Y191729D01*
Y194132D01*
X291120Y196352D01*
X289772Y197700D01*
X291120Y199049D01*
X292040Y201269D01*
Y203672D01*
X291120Y205892D01*
X289772Y207240D01*
X291120Y208589D01*
X292040Y210809D01*
Y213212D01*
X291120Y215432D01*
X289772Y216780D01*
X291120Y218129D01*
X292040Y220349D01*
Y222752D01*
X291120Y224972D01*
X289772Y226320D01*
X291120Y227669D01*
X292040Y229889D01*
Y232292D01*
X291120Y234512D01*
X289772Y235860D01*
X291120Y237209D01*
X292040Y239429D01*
Y241832D01*
X291120Y244052D01*
X289772Y245400D01*
X291120Y246749D01*
X292040Y248969D01*
Y251372D01*
X291120Y253592D01*
X289984Y254728D01*
X291536Y256280D01*
X292456Y258500D01*
Y260903D01*
X291536Y263123D01*
X289975Y264684D01*
X291120Y265829D01*
X292040Y268049D01*
Y270452D01*
X291120Y272672D01*
X289421Y274371D01*
X287201Y275290D01*
D02*
G37*
G36*
X155000Y77625D02*
X145000D01*
X140679Y77285D01*
X136463Y76273D01*
X132458Y74614D01*
X128762Y72349D01*
X125466Y69534D01*
X122651Y66238D01*
X120386Y62542D01*
X118727Y58537D01*
X117715Y54321D01*
X117375Y50000D01*
X117715Y45679D01*
X118727Y41463D01*
X120386Y37458D01*
X122651Y33762D01*
X125466Y30466D01*
X128762Y27651D01*
X132458Y25386D01*
X136463Y23727D01*
X140679Y22715D01*
X145000Y22375D01*
X155000D01*
X159321Y22715D01*
X163537Y23727D01*
X167542Y25386D01*
X171238Y27651D01*
X174534Y30466D01*
X177349Y33762D01*
X179614Y37458D01*
X181273Y41463D01*
X182285Y45679D01*
X182625Y50000D01*
X182285Y54321D01*
X181273Y58537D01*
X179614Y62542D01*
X177349Y66238D01*
X174534Y69534D01*
X171238Y72349D01*
X167542Y74614D01*
X163537Y76273D01*
X159321Y77285D01*
X155000Y77625D01*
D02*
G37*
%LPD*%
G36*
X285702Y265763D02*
X285354Y265780D01*
X285017Y265771D01*
X284693Y265735D01*
X284381Y265672D01*
X284081Y265583D01*
X283792Y265467D01*
X283515Y265325D01*
X283251Y265156D01*
X282998Y264961D01*
X282757Y264739D01*
X281248Y266511D01*
X281465Y266746D01*
X281663Y266995D01*
X281840Y267257D01*
X281996Y267533D01*
X282133Y267823D01*
X282248Y268127D01*
X282344Y268444D01*
X282419Y268776D01*
X282473Y269121D01*
X282507Y269479D01*
X285702Y265763D01*
D02*
G37*
G36*
X17524Y269421D02*
X17605Y269076D01*
X17703Y268745D01*
X17818Y268429D01*
X17949Y268127D01*
X18098Y267839D01*
X18262Y267566D01*
X18444Y267307D01*
X18643Y267062D01*
X18858Y266831D01*
X17502Y264905D01*
X17258Y265129D01*
X17004Y265323D01*
X16740Y265487D01*
X16465Y265622D01*
X16180Y265726D01*
X15884Y265801D01*
X15578Y265846D01*
X15262Y265861D01*
X14936Y265847D01*
X14599Y265802D01*
X17460Y269780D01*
X17524Y269421D01*
D02*
G37*
G36*
X285401Y246722D02*
X285064Y246766D01*
X284738Y246781D01*
X284422Y246766D01*
X284116Y246721D01*
X283820Y246646D01*
X283535Y246542D01*
X283260Y246407D01*
X282996Y246243D01*
X282742Y246049D01*
X282498Y245825D01*
X281142Y247751D01*
X281357Y247982D01*
X281556Y248227D01*
X281737Y248486D01*
X281902Y248759D01*
X282051Y249047D01*
X282182Y249349D01*
X282297Y249665D01*
X282395Y249996D01*
X282476Y250341D01*
X282540Y250700D01*
X285401Y246722D01*
D02*
G37*
G36*
X17524Y250341D02*
X17605Y249996D01*
X17703Y249665D01*
X17818Y249349D01*
X17949Y249047D01*
X18098Y248759D01*
X18262Y248486D01*
X18444Y248227D01*
X18643Y247982D01*
X18858Y247751D01*
X17502Y245825D01*
X17258Y246049D01*
X17004Y246243D01*
X16740Y246407D01*
X16465Y246542D01*
X16180Y246646D01*
X15884Y246721D01*
X15578Y246766D01*
X15262Y246781D01*
X14936Y246766D01*
X14599Y246722D01*
X17460Y250700D01*
X17524Y250341D01*
D02*
G37*
G36*
X285401Y237182D02*
X285064Y237226D01*
X284738Y237241D01*
X284422Y237226D01*
X284116Y237181D01*
X283820Y237106D01*
X283535Y237002D01*
X283260Y236867D01*
X282996Y236703D01*
X282742Y236509D01*
X282498Y236285D01*
X281142Y238211D01*
X281357Y238442D01*
X281556Y238687D01*
X281737Y238946D01*
X281902Y239219D01*
X282051Y239507D01*
X282182Y239809D01*
X282297Y240125D01*
X282395Y240456D01*
X282476Y240801D01*
X282540Y241160D01*
X285401Y237182D01*
D02*
G37*
G36*
X17524Y240801D02*
X17605Y240456D01*
X17703Y240125D01*
X17818Y239809D01*
X17949Y239507D01*
X18098Y239219D01*
X18262Y238946D01*
X18444Y238687D01*
X18643Y238442D01*
X18858Y238211D01*
X17502Y236285D01*
X17258Y236509D01*
X17004Y236703D01*
X16740Y236867D01*
X16465Y237002D01*
X16180Y237106D01*
X15884Y237181D01*
X15578Y237226D01*
X15262Y237241D01*
X14936Y237226D01*
X14599Y237182D01*
X17460Y241160D01*
X17524Y240801D01*
D02*
G37*
G36*
X285401Y227642D02*
X285064Y227686D01*
X284738Y227701D01*
X284422Y227686D01*
X284116Y227641D01*
X283820Y227566D01*
X283535Y227462D01*
X283260Y227327D01*
X282996Y227163D01*
X282742Y226969D01*
X282498Y226745D01*
X281142Y228671D01*
X281357Y228902D01*
X281556Y229146D01*
X281737Y229406D01*
X281902Y229679D01*
X282051Y229967D01*
X282182Y230269D01*
X282297Y230585D01*
X282395Y230916D01*
X282476Y231261D01*
X282540Y231620D01*
X285401Y227642D01*
D02*
G37*
G36*
X17524Y231261D02*
X17605Y230916D01*
X17703Y230585D01*
X17818Y230269D01*
X17949Y229967D01*
X18098Y229679D01*
X18262Y229406D01*
X18444Y229146D01*
X18643Y228902D01*
X18858Y228671D01*
X17502Y226745D01*
X17258Y226969D01*
X17004Y227163D01*
X16740Y227327D01*
X16465Y227462D01*
X16180Y227566D01*
X15884Y227641D01*
X15578Y227686D01*
X15262Y227701D01*
X14936Y227686D01*
X14599Y227642D01*
X17460Y231620D01*
X17524Y231261D01*
D02*
G37*
G36*
X285401Y218102D02*
X285064Y218146D01*
X284738Y218161D01*
X284422Y218146D01*
X284116Y218101D01*
X283820Y218026D01*
X283535Y217922D01*
X283260Y217787D01*
X282996Y217623D01*
X282742Y217429D01*
X282498Y217205D01*
X281142Y219131D01*
X281357Y219361D01*
X281556Y219606D01*
X281737Y219866D01*
X281902Y220139D01*
X282051Y220427D01*
X282182Y220729D01*
X282297Y221045D01*
X282395Y221376D01*
X282476Y221721D01*
X282540Y222080D01*
X285401Y218102D01*
D02*
G37*
G36*
X17524Y221721D02*
X17605Y221376D01*
X17703Y221045D01*
X17818Y220729D01*
X17949Y220427D01*
X18098Y220139D01*
X18262Y219866D01*
X18444Y219606D01*
X18643Y219361D01*
X18858Y219131D01*
X17502Y217205D01*
X17258Y217429D01*
X17004Y217623D01*
X16740Y217787D01*
X16465Y217922D01*
X16180Y218026D01*
X15884Y218101D01*
X15578Y218146D01*
X15262Y218161D01*
X14936Y218146D01*
X14599Y218102D01*
X17460Y222080D01*
X17524Y221721D01*
D02*
G37*
G36*
X285401Y208562D02*
X285064Y208606D01*
X284738Y208621D01*
X284422Y208606D01*
X284116Y208561D01*
X283820Y208486D01*
X283535Y208382D01*
X283260Y208247D01*
X282996Y208083D01*
X282742Y207889D01*
X282498Y207665D01*
X281142Y209591D01*
X281357Y209821D01*
X281556Y210066D01*
X281737Y210326D01*
X281902Y210599D01*
X282051Y210887D01*
X282182Y211189D01*
X282297Y211505D01*
X282395Y211836D01*
X282476Y212181D01*
X282540Y212540D01*
X285401Y208562D01*
D02*
G37*
G36*
X17524Y212181D02*
X17605Y211836D01*
X17703Y211505D01*
X17818Y211189D01*
X17949Y210887D01*
X18098Y210599D01*
X18262Y210326D01*
X18444Y210066D01*
X18643Y209821D01*
X18858Y209591D01*
X17502Y207665D01*
X17258Y207889D01*
X17004Y208083D01*
X16740Y208247D01*
X16465Y208382D01*
X16180Y208486D01*
X15884Y208561D01*
X15578Y208606D01*
X15262Y208621D01*
X14936Y208606D01*
X14599Y208562D01*
X17460Y212540D01*
X17524Y212181D01*
D02*
G37*
G36*
X285401Y199022D02*
X285064Y199066D01*
X284738Y199081D01*
X284422Y199066D01*
X284116Y199021D01*
X283820Y198946D01*
X283535Y198841D01*
X283260Y198707D01*
X282996Y198543D01*
X282742Y198349D01*
X282498Y198125D01*
X281142Y200051D01*
X281357Y200281D01*
X281556Y200526D01*
X281737Y200786D01*
X281902Y201059D01*
X282051Y201347D01*
X282182Y201649D01*
X282297Y201965D01*
X282395Y202296D01*
X282476Y202641D01*
X282540Y203000D01*
X285401Y199022D01*
D02*
G37*
G36*
X17524Y202641D02*
X17605Y202296D01*
X17703Y201965D01*
X17818Y201649D01*
X17949Y201347D01*
X18098Y201059D01*
X18262Y200786D01*
X18444Y200526D01*
X18643Y200281D01*
X18858Y200051D01*
X17502Y198125D01*
X17258Y198349D01*
X17004Y198543D01*
X16740Y198707D01*
X16465Y198841D01*
X16180Y198946D01*
X15884Y199021D01*
X15578Y199066D01*
X15262Y199081D01*
X14936Y199066D01*
X14599Y199022D01*
X17460Y203000D01*
X17524Y202641D01*
D02*
G37*
G36*
X285401Y189482D02*
X285064Y189526D01*
X284738Y189541D01*
X284422Y189526D01*
X284116Y189481D01*
X283820Y189406D01*
X283535Y189301D01*
X283260Y189167D01*
X282996Y189003D01*
X282742Y188809D01*
X282498Y188585D01*
X281142Y190511D01*
X281357Y190741D01*
X281556Y190986D01*
X281737Y191246D01*
X281902Y191519D01*
X282051Y191807D01*
X282182Y192109D01*
X282297Y192425D01*
X282395Y192756D01*
X282476Y193101D01*
X282540Y193460D01*
X285401Y189482D01*
D02*
G37*
G36*
X17524Y193101D02*
X17605Y192756D01*
X17703Y192425D01*
X17818Y192109D01*
X17949Y191807D01*
X18098Y191519D01*
X18262Y191246D01*
X18444Y190986D01*
X18643Y190741D01*
X18858Y190511D01*
X17502Y188585D01*
X17258Y188809D01*
X17004Y189003D01*
X16740Y189167D01*
X16465Y189301D01*
X16180Y189406D01*
X15884Y189481D01*
X15578Y189526D01*
X15262Y189541D01*
X14936Y189526D01*
X14599Y189482D01*
X17460Y193460D01*
X17524Y193101D01*
D02*
G37*
G36*
X285401Y179942D02*
X285064Y179986D01*
X284738Y180001D01*
X284422Y179986D01*
X284116Y179941D01*
X283820Y179866D01*
X283535Y179761D01*
X283260Y179627D01*
X282996Y179463D01*
X282742Y179269D01*
X282498Y179045D01*
X281142Y180971D01*
X281357Y181201D01*
X281556Y181446D01*
X281737Y181705D01*
X281902Y181979D01*
X282051Y182267D01*
X282182Y182569D01*
X282297Y182885D01*
X282395Y183216D01*
X282476Y183561D01*
X282540Y183920D01*
X285401Y179942D01*
D02*
G37*
G36*
X17524Y183561D02*
X17605Y183216D01*
X17703Y182885D01*
X17818Y182569D01*
X17949Y182267D01*
X18098Y181979D01*
X18262Y181705D01*
X18444Y181446D01*
X18643Y181201D01*
X18858Y180971D01*
X17502Y179045D01*
X17258Y179269D01*
X17004Y179463D01*
X16740Y179627D01*
X16465Y179761D01*
X16180Y179866D01*
X15884Y179941D01*
X15578Y179986D01*
X15262Y180001D01*
X14936Y179986D01*
X14599Y179942D01*
X17460Y183920D01*
X17524Y183561D01*
D02*
G37*
G36*
X285401Y170402D02*
X285064Y170446D01*
X284738Y170461D01*
X284422Y170446D01*
X284116Y170401D01*
X283820Y170326D01*
X283535Y170221D01*
X283260Y170087D01*
X282996Y169923D01*
X282742Y169729D01*
X282498Y169505D01*
X281142Y171431D01*
X281357Y171661D01*
X281556Y171906D01*
X281737Y172166D01*
X281902Y172439D01*
X282051Y172727D01*
X282182Y173029D01*
X282297Y173345D01*
X282395Y173676D01*
X282476Y174021D01*
X282540Y174380D01*
X285401Y170402D01*
D02*
G37*
G36*
X17524Y174021D02*
X17605Y173676D01*
X17703Y173345D01*
X17818Y173029D01*
X17949Y172727D01*
X18098Y172439D01*
X18262Y172166D01*
X18444Y171906D01*
X18643Y171661D01*
X18858Y171431D01*
X17502Y169505D01*
X17258Y169729D01*
X17004Y169923D01*
X16740Y170087D01*
X16465Y170221D01*
X16180Y170326D01*
X15884Y170401D01*
X15578Y170446D01*
X15262Y170461D01*
X14936Y170446D01*
X14599Y170402D01*
X17460Y174380D01*
X17524Y174021D01*
D02*
G37*
G36*
X285401Y160862D02*
X285064Y160906D01*
X284738Y160921D01*
X284422Y160906D01*
X284116Y160861D01*
X283820Y160786D01*
X283535Y160681D01*
X283260Y160547D01*
X282996Y160383D01*
X282742Y160189D01*
X282498Y159965D01*
X281142Y161891D01*
X281357Y162121D01*
X281556Y162366D01*
X281737Y162626D01*
X281902Y162899D01*
X282051Y163187D01*
X282182Y163489D01*
X282297Y163805D01*
X282395Y164136D01*
X282476Y164480D01*
X282540Y164840D01*
X285401Y160862D01*
D02*
G37*
G36*
X17524Y164480D02*
X17605Y164136D01*
X17703Y163805D01*
X17818Y163489D01*
X17949Y163187D01*
X18098Y162899D01*
X18262Y162626D01*
X18444Y162366D01*
X18643Y162121D01*
X18858Y161891D01*
X17502Y159965D01*
X17258Y160189D01*
X17004Y160383D01*
X16740Y160547D01*
X16465Y160681D01*
X16180Y160786D01*
X15884Y160861D01*
X15578Y160906D01*
X15262Y160921D01*
X14936Y160906D01*
X14599Y160862D01*
X17460Y164840D01*
X17524Y164480D01*
D02*
G37*
G36*
X284923Y151440D02*
X284660Y151516D01*
X284365Y151584D01*
X283682Y151696D01*
X282874Y151776D01*
X281426Y151836D01*
X280881Y151840D01*
X280454Y154160D01*
X280797Y154175D01*
X281111Y154218D01*
X281397Y154291D01*
X281655Y154394D01*
X281884Y154525D01*
X282085Y154685D01*
X282258Y154875D01*
X282402Y155094D01*
X282517Y155342D01*
X282605Y155620D01*
X284923Y151440D01*
D02*
G37*
G36*
X17483Y155342D02*
X17598Y155094D01*
X17742Y154875D01*
X17915Y154685D01*
X18116Y154525D01*
X18345Y154394D01*
X18603Y154291D01*
X18889Y154218D01*
X19203Y154175D01*
X19546Y154160D01*
X19119Y151840D01*
X18574Y151836D01*
X16318Y151696D01*
X15961Y151644D01*
X15340Y151516D01*
X15077Y151440D01*
X17395Y155620D01*
X17483Y155342D01*
D02*
G37*
G36*
X282605Y144380D02*
X282517Y144658D01*
X282402Y144906D01*
X282258Y145125D01*
X282085Y145315D01*
X281884Y145475D01*
X281655Y145606D01*
X281397Y145709D01*
X281111Y145782D01*
X280797Y145825D01*
X280454Y145840D01*
X281986Y148160D01*
X282321Y148164D01*
X283570Y148260D01*
X283859Y148304D01*
X284671Y148484D01*
X284923Y148560D01*
X282605Y144380D01*
D02*
G37*
G36*
X15329Y148484D02*
X15861Y148356D01*
X16141Y148304D01*
X17036Y148196D01*
X17353Y148176D01*
X18015Y148160D01*
X19546Y145840D01*
X19203Y145825D01*
X18889Y145781D01*
X18603Y145709D01*
X18345Y145606D01*
X18116Y145475D01*
X17915Y145315D01*
X17742Y145125D01*
X17598Y144906D01*
X17483Y144658D01*
X17395Y144380D01*
X15077Y148560D01*
X15329Y148484D01*
D02*
G37*
G36*
X18858Y138109D02*
X18643Y137879D01*
X18444Y137634D01*
X18262Y137374D01*
X18098Y137101D01*
X17949Y136813D01*
X17818Y136511D01*
X17703Y136195D01*
X17605Y135864D01*
X17524Y135519D01*
X17460Y135160D01*
X14599Y139138D01*
X14936Y139094D01*
X15262Y139079D01*
X15578Y139094D01*
X15884Y139139D01*
X16180Y139214D01*
X16465Y139319D01*
X16740Y139453D01*
X17004Y139617D01*
X17258Y139811D01*
X17502Y140035D01*
X18858Y138109D01*
D02*
G37*
G36*
X282742Y139811D02*
X282996Y139617D01*
X283260Y139453D01*
X283535Y139319D01*
X283820Y139214D01*
X284116Y139139D01*
X284422Y139094D01*
X284738Y139079D01*
X285064Y139094D01*
X285401Y139138D01*
X282540Y135160D01*
X282476Y135519D01*
X282395Y135864D01*
X282297Y136195D01*
X282182Y136511D01*
X282051Y136813D01*
X281902Y137101D01*
X281737Y137374D01*
X281556Y137634D01*
X281357Y137879D01*
X281142Y138109D01*
X282498Y140035D01*
X282742Y139811D01*
D02*
G37*
G36*
X18858Y128569D02*
X18643Y128339D01*
X18444Y128094D01*
X18262Y127835D01*
X18098Y127561D01*
X17949Y127273D01*
X17818Y126971D01*
X17703Y126655D01*
X17605Y126324D01*
X17524Y125979D01*
X17460Y125620D01*
X14599Y129598D01*
X14936Y129554D01*
X15262Y129539D01*
X15578Y129554D01*
X15884Y129599D01*
X16180Y129674D01*
X16465Y129779D01*
X16740Y129913D01*
X17004Y130077D01*
X17258Y130271D01*
X17502Y130495D01*
X18858Y128569D01*
D02*
G37*
G36*
X282742Y130271D02*
X282996Y130077D01*
X283260Y129913D01*
X283535Y129779D01*
X283820Y129674D01*
X284116Y129599D01*
X284422Y129554D01*
X284738Y129539D01*
X285064Y129554D01*
X285401Y129598D01*
X282540Y125620D01*
X282476Y125979D01*
X282395Y126324D01*
X282297Y126655D01*
X282182Y126971D01*
X282051Y127273D01*
X281902Y127561D01*
X281737Y127835D01*
X281556Y128094D01*
X281357Y128339D01*
X281142Y128569D01*
X282498Y130495D01*
X282742Y130271D01*
D02*
G37*
G36*
X18858Y119029D02*
X18643Y118799D01*
X18444Y118554D01*
X18262Y118294D01*
X18098Y118021D01*
X17949Y117733D01*
X17818Y117431D01*
X17703Y117115D01*
X17605Y116784D01*
X17524Y116439D01*
X17460Y116080D01*
X14599Y120058D01*
X14936Y120014D01*
X15262Y119999D01*
X15578Y120014D01*
X15884Y120059D01*
X16180Y120134D01*
X16465Y120239D01*
X16740Y120373D01*
X17004Y120537D01*
X17258Y120731D01*
X17502Y120955D01*
X18858Y119029D01*
D02*
G37*
G36*
X282742Y120731D02*
X282996Y120537D01*
X283260Y120373D01*
X283535Y120239D01*
X283820Y120134D01*
X284116Y120059D01*
X284422Y120014D01*
X284738Y119999D01*
X285064Y120014D01*
X285401Y120058D01*
X282540Y116080D01*
X282476Y116439D01*
X282395Y116784D01*
X282297Y117115D01*
X282182Y117431D01*
X282051Y117733D01*
X281902Y118021D01*
X281737Y118294D01*
X281556Y118554D01*
X281357Y118799D01*
X281142Y119029D01*
X282498Y120955D01*
X282742Y120731D01*
D02*
G37*
G36*
X18858Y109489D02*
X18643Y109259D01*
X18444Y109014D01*
X18262Y108754D01*
X18098Y108481D01*
X17949Y108193D01*
X17818Y107891D01*
X17703Y107575D01*
X17605Y107244D01*
X17524Y106899D01*
X17460Y106540D01*
X14599Y110518D01*
X14936Y110474D01*
X15262Y110459D01*
X15578Y110474D01*
X15884Y110519D01*
X16180Y110594D01*
X16465Y110698D01*
X16740Y110833D01*
X17004Y110997D01*
X17258Y111191D01*
X17502Y111415D01*
X18858Y109489D01*
D02*
G37*
G36*
X282742Y111191D02*
X282996Y110997D01*
X283260Y110833D01*
X283535Y110698D01*
X283820Y110594D01*
X284116Y110519D01*
X284422Y110474D01*
X284738Y110459D01*
X285064Y110474D01*
X285401Y110518D01*
X282540Y106540D01*
X282476Y106899D01*
X282395Y107244D01*
X282297Y107575D01*
X282182Y107891D01*
X282051Y108193D01*
X281902Y108481D01*
X281737Y108754D01*
X281556Y109014D01*
X281357Y109259D01*
X281142Y109489D01*
X282498Y111415D01*
X282742Y111191D01*
D02*
G37*
G36*
X18858Y99949D02*
X18643Y99719D01*
X18444Y99474D01*
X18262Y99214D01*
X18098Y98941D01*
X17949Y98653D01*
X17818Y98351D01*
X17703Y98035D01*
X17605Y97704D01*
X17524Y97359D01*
X17460Y97000D01*
X14599Y100978D01*
X14936Y100934D01*
X15262Y100919D01*
X15578Y100934D01*
X15884Y100979D01*
X16180Y101054D01*
X16465Y101158D01*
X16740Y101293D01*
X17004Y101457D01*
X17258Y101651D01*
X17502Y101875D01*
X18858Y99949D01*
D02*
G37*
G36*
X282742Y101651D02*
X282996Y101457D01*
X283260Y101293D01*
X283535Y101158D01*
X283820Y101054D01*
X284116Y100979D01*
X284422Y100934D01*
X284738Y100919D01*
X285064Y100934D01*
X285401Y100978D01*
X282540Y97000D01*
X282476Y97359D01*
X282395Y97704D01*
X282297Y98035D01*
X282182Y98351D01*
X282051Y98653D01*
X281902Y98941D01*
X281737Y99214D01*
X281556Y99474D01*
X281357Y99719D01*
X281142Y99949D01*
X282498Y101875D01*
X282742Y101651D01*
D02*
G37*
G36*
X18858Y90409D02*
X18643Y90178D01*
X18444Y89934D01*
X18262Y89674D01*
X18098Y89401D01*
X17949Y89113D01*
X17818Y88811D01*
X17703Y88495D01*
X17605Y88164D01*
X17524Y87819D01*
X17460Y87460D01*
X14599Y91438D01*
X14936Y91394D01*
X15262Y91379D01*
X15578Y91394D01*
X15884Y91439D01*
X16180Y91514D01*
X16465Y91618D01*
X16740Y91753D01*
X17004Y91917D01*
X17258Y92111D01*
X17502Y92335D01*
X18858Y90409D01*
D02*
G37*
G36*
X282742Y92111D02*
X282996Y91917D01*
X283260Y91753D01*
X283535Y91618D01*
X283820Y91514D01*
X284116Y91439D01*
X284422Y91394D01*
X284738Y91379D01*
X285064Y91394D01*
X285401Y91438D01*
X282540Y87460D01*
X282476Y87819D01*
X282395Y88164D01*
X282297Y88495D01*
X282182Y88811D01*
X282051Y89113D01*
X281902Y89401D01*
X281737Y89674D01*
X281556Y89934D01*
X281357Y90178D01*
X281142Y90409D01*
X282498Y92335D01*
X282742Y92111D01*
D02*
G37*
G36*
X18858Y80869D02*
X18643Y80639D01*
X18444Y80393D01*
X18262Y80134D01*
X18098Y79861D01*
X17949Y79573D01*
X17818Y79271D01*
X17703Y78955D01*
X17605Y78624D01*
X17524Y78279D01*
X17460Y77920D01*
X14599Y81898D01*
X14936Y81854D01*
X15262Y81839D01*
X15578Y81854D01*
X15884Y81899D01*
X16180Y81974D01*
X16465Y82078D01*
X16740Y82213D01*
X17004Y82377D01*
X17258Y82571D01*
X17502Y82795D01*
X18858Y80869D01*
D02*
G37*
G36*
X282742Y82571D02*
X282996Y82377D01*
X283260Y82213D01*
X283535Y82078D01*
X283820Y81974D01*
X284116Y81899D01*
X284422Y81854D01*
X284738Y81839D01*
X285064Y81854D01*
X285401Y81898D01*
X282540Y77920D01*
X282476Y78279D01*
X282395Y78624D01*
X282297Y78955D01*
X282182Y79271D01*
X282051Y79573D01*
X281902Y79861D01*
X281737Y80134D01*
X281556Y80393D01*
X281357Y80639D01*
X281142Y80869D01*
X282498Y82795D01*
X282742Y82571D01*
D02*
G37*
G36*
X18858Y71329D02*
X18643Y71098D01*
X18444Y70854D01*
X18262Y70594D01*
X18098Y70321D01*
X17949Y70033D01*
X17818Y69731D01*
X17703Y69415D01*
X17605Y69084D01*
X17524Y68739D01*
X17460Y68380D01*
X14599Y72358D01*
X14936Y72314D01*
X15262Y72299D01*
X15578Y72314D01*
X15884Y72359D01*
X16180Y72434D01*
X16465Y72538D01*
X16740Y72673D01*
X17004Y72837D01*
X17258Y73031D01*
X17502Y73255D01*
X18858Y71329D01*
D02*
G37*
G36*
X282742Y73031D02*
X282996Y72837D01*
X283260Y72673D01*
X283535Y72538D01*
X283820Y72434D01*
X284116Y72359D01*
X284422Y72314D01*
X284738Y72299D01*
X285064Y72314D01*
X285401Y72358D01*
X282540Y68380D01*
X282476Y68739D01*
X282395Y69084D01*
X282297Y69415D01*
X282182Y69731D01*
X282051Y70033D01*
X281902Y70321D01*
X281737Y70594D01*
X281556Y70854D01*
X281357Y71098D01*
X281142Y71329D01*
X282498Y73255D01*
X282742Y73031D01*
D02*
G37*
G36*
X18858Y61789D02*
X18643Y61558D01*
X18444Y61313D01*
X18262Y61054D01*
X18098Y60781D01*
X17949Y60493D01*
X17818Y60191D01*
X17703Y59875D01*
X17605Y59544D01*
X17524Y59199D01*
X17460Y58840D01*
X14599Y62818D01*
X14936Y62774D01*
X15262Y62759D01*
X15578Y62774D01*
X15884Y62819D01*
X16180Y62894D01*
X16465Y62998D01*
X16740Y63133D01*
X17004Y63297D01*
X17258Y63491D01*
X17502Y63715D01*
X18858Y61789D01*
D02*
G37*
G36*
X282742Y63491D02*
X282996Y63297D01*
X283260Y63133D01*
X283535Y62998D01*
X283820Y62894D01*
X284116Y62819D01*
X284422Y62774D01*
X284738Y62759D01*
X285064Y62774D01*
X285401Y62818D01*
X282540Y58840D01*
X282476Y59199D01*
X282395Y59544D01*
X282297Y59875D01*
X282182Y60191D01*
X282051Y60493D01*
X281902Y60781D01*
X281737Y61054D01*
X281556Y61313D01*
X281357Y61558D01*
X281142Y61789D01*
X282498Y63715D01*
X282742Y63491D01*
D02*
G37*
G36*
X18858Y52249D02*
X18643Y52018D01*
X18444Y51773D01*
X18262Y51514D01*
X18098Y51241D01*
X17949Y50953D01*
X17818Y50651D01*
X17703Y50335D01*
X17605Y50004D01*
X17524Y49659D01*
X17460Y49300D01*
X14599Y53278D01*
X14936Y53233D01*
X15262Y53219D01*
X15578Y53234D01*
X15884Y53279D01*
X16180Y53354D01*
X16465Y53458D01*
X16740Y53593D01*
X17004Y53757D01*
X17258Y53951D01*
X17502Y54175D01*
X18858Y52249D01*
D02*
G37*
G36*
X282742Y53951D02*
X282996Y53757D01*
X283260Y53593D01*
X283535Y53458D01*
X283820Y53354D01*
X284116Y53279D01*
X284422Y53234D01*
X284738Y53219D01*
X285064Y53233D01*
X285401Y53278D01*
X282540Y49300D01*
X282476Y49659D01*
X282395Y50004D01*
X282297Y50335D01*
X282182Y50651D01*
X282051Y50953D01*
X281902Y51241D01*
X281737Y51514D01*
X281556Y51773D01*
X281357Y52018D01*
X281142Y52249D01*
X282498Y54175D01*
X282742Y53951D01*
D02*
G37*
G36*
X18858Y33169D02*
X18643Y32938D01*
X18444Y32693D01*
X18262Y32434D01*
X18098Y32161D01*
X17949Y31873D01*
X17818Y31571D01*
X17703Y31254D01*
X17605Y30924D01*
X17524Y30579D01*
X17460Y30220D01*
X14599Y34198D01*
X14936Y34153D01*
X15262Y34139D01*
X15578Y34154D01*
X15884Y34199D01*
X16180Y34274D01*
X16465Y34378D01*
X16740Y34513D01*
X17004Y34677D01*
X17258Y34871D01*
X17502Y35094D01*
X18858Y33169D01*
D02*
G37*
G36*
X282998Y35039D02*
X283251Y34843D01*
X283515Y34675D01*
X283792Y34533D01*
X284081Y34417D01*
X284381Y34328D01*
X284693Y34265D01*
X285017Y34229D01*
X285354Y34220D01*
X285702Y34237D01*
X282507Y30521D01*
X282473Y30879D01*
X282419Y31224D01*
X282344Y31556D01*
X282248Y31873D01*
X282133Y32176D01*
X281996Y32466D01*
X281840Y32743D01*
X281663Y33005D01*
X281465Y33254D01*
X281248Y33489D01*
X282757Y35261D01*
X282998Y35039D01*
D02*
G37*
D21*
X236112Y210620D02*
X282972Y257480D01*
X232450Y215700D02*
X279106Y262356D01*
X14798Y269250D02*
X68348Y215700D01*
X232450D01*
X63888Y210620D02*
X236112D01*
X17028Y257480D02*
X63888Y210620D01*
X240572Y205540D02*
X285202Y250170D01*
X14798Y240630D02*
X54968Y200460D01*
X59428Y205540D02*
X240572D01*
X245032Y200460D02*
X285202Y240630D01*
X54968Y200460D02*
X245032D01*
X14798Y250170D02*
X59428Y205540D01*
X68448Y84400D02*
X231977D01*
X17028Y42520D02*
X63988Y89480D01*
X236012D02*
X282972Y42520D01*
X14798Y30749D02*
X68448Y84400D01*
X231977D02*
X285627Y30749D01*
X63988Y89480D02*
X236012D01*
X240472Y94560D02*
X285202Y49830D01*
X244932Y99640D02*
X285202Y59370D01*
X14798Y49830D02*
X59528Y94560D01*
X55068Y99640D02*
X244932D01*
X59528Y94560D02*
X240472D01*
X14798Y59370D02*
X55068Y99640D01*
X249392Y104720D02*
X285202Y68910D01*
X14798D02*
X50608Y104720D01*
X46148Y109800D02*
X253852D01*
X14798Y78450D02*
X46148Y109800D01*
X50608Y104720D02*
X249392D01*
X253852Y109800D02*
X285202Y78450D01*
X285627Y30749D02*
X286000D01*
X285209Y40299D02*
X286416D01*
X282988Y42520D02*
X285209Y40299D01*
X282972Y42520D02*
X282988D01*
X283023Y153000D02*
X284793Y154770D01*
X16977Y153000D02*
X283023D01*
X284793Y154770D02*
X286000D01*
X14000D02*
X15207D01*
X16977Y153000D01*
X285202Y164310D02*
X286000D01*
X258412Y185220D02*
X285202Y212010D01*
X50508Y195380D02*
X249492D01*
X23748Y164900D02*
X276252D01*
X249492Y195380D02*
X285202Y231090D01*
X37128Y180140D02*
X262872D01*
X279892Y159000D02*
X285202Y164310D01*
X249042Y159000D02*
X279892D01*
X14798Y202470D02*
X37128Y180140D01*
X20108Y159000D02*
X249042Y159000D01*
X14798Y183390D02*
X28208Y169980D01*
X267332Y175060D02*
X285202Y192930D01*
X20108Y159000D02*
X20108D01*
X14798Y164310D02*
X20108Y159000D01*
X14798Y173850D02*
X23748Y164900D01*
X271792Y169980D02*
X285202Y183390D01*
X14798Y231090D02*
X50508Y195380D01*
X253952Y190300D02*
X285202Y221550D01*
X262872Y180140D02*
X285202Y202470D01*
X32668Y175060D02*
X267332D01*
X41588Y185220D02*
X258412D01*
X14798Y192930D02*
X32668Y175060D01*
X14798Y212010D02*
X41588Y185220D01*
X276252Y164900D02*
X285202Y173850D01*
X28208Y169980D02*
X271792D01*
X20108Y159000D02*
X81062D01*
X46048Y190300D02*
X253952D01*
X14798Y221550D02*
X46048Y190300D01*
X262772Y119960D02*
X285202Y97530D01*
X276152Y135200D02*
X285202Y126150D01*
X14798Y116610D02*
X28308Y130120D01*
X14798Y107070D02*
X32768Y125040D01*
X258312Y114880D02*
X285202Y87990D01*
X14798Y97530D02*
X37228Y119960D01*
X23848Y135200D02*
X276152D01*
X14798Y126150D02*
X23848Y135200D01*
X41688Y114880D02*
X258312D01*
X267232Y125040D02*
X285202Y107070D01*
X28308Y130120D02*
X271692D01*
X37228Y119960D02*
X262772D01*
X271692Y130120D02*
X285202Y116610D01*
X14798Y87990D02*
X41688Y114880D01*
X32768Y125040D02*
X267232D01*
X82850Y141000D02*
X267892Y141000D01*
X14798Y135690D02*
X20108Y141000D01*
X285202Y135690D02*
X286000D01*
X267892Y141000D02*
X279892D01*
X285202Y135690D01*
X92104Y147000D02*
X244834Y147000D01*
X284230D01*
X286000Y145230D01*
X15770Y147000D02*
X92104D01*
X20108Y141000D02*
X82850D01*
X285202Y183390D02*
X286000D01*
X285202Y192930D02*
X286000D01*
X282972Y257480D02*
X282988D01*
X285209Y259701D02*
X286416D01*
X282988Y257480D02*
X285209Y259701D01*
X285202Y250170D02*
X286000D01*
X285202Y49830D02*
X286000D01*
X279106Y262729D02*
X285627Y269250D01*
X286000D01*
X279106Y262356D02*
Y262729D01*
X285202Y240630D02*
X286000D01*
X285202Y231090D02*
X286000D01*
X285202Y221550D02*
X286000D01*
X285202Y212010D02*
X286000D01*
X285202Y202470D02*
X286000D01*
X285202Y173850D02*
X286000D01*
X285202Y59370D02*
X286000D01*
X285202Y68910D02*
X286000D01*
X285202Y78450D02*
X286000D01*
X285202Y87990D02*
X286000D01*
X285202Y97530D02*
X286000D01*
X285202Y107070D02*
X286000D01*
X285202Y116610D02*
X286000D01*
X285202Y126150D02*
X286000D01*
X14000Y269250D02*
X14798D01*
X17012Y257480D02*
X17028D01*
X13584Y259701D02*
X14791D01*
X17012Y257480D01*
X17012Y42520D02*
X17028D01*
X14791Y40299D02*
X17012Y42520D01*
X13584Y40299D02*
X14791D01*
D22*
X150000Y250000D02*
D03*
Y50000D02*
D03*
D23*
X169062Y265643D02*
D03*
X130939D02*
D03*
X169062Y234357D02*
D03*
X130939D02*
D03*
X174000Y250000D02*
D03*
X124000D02*
D03*
X169062Y65643D02*
D03*
X176000Y50000D02*
D03*
X169062Y34357D02*
D03*
X130939D02*
D03*
X124000Y50000D02*
D03*
X130939Y65643D02*
D03*
X290000Y290000D02*
D03*
Y10000D02*
D03*
X280000Y290000D02*
D03*
Y10000D02*
D03*
X270000Y290000D02*
D03*
X275000Y280000D02*
D03*
X270000Y270000D02*
D03*
Y30000D02*
D03*
X275000Y20000D02*
D03*
X270000Y10000D02*
D03*
X260000Y290000D02*
D03*
X265000Y280000D02*
D03*
X260000Y270000D02*
D03*
Y30000D02*
D03*
X265000Y20000D02*
D03*
X260000Y10000D02*
D03*
X250000Y290000D02*
D03*
X255000Y280000D02*
D03*
X250000Y270000D02*
D03*
X255000Y260000D02*
D03*
X250000Y250000D02*
D03*
Y50000D02*
D03*
X255000Y40000D02*
D03*
X250000Y30000D02*
D03*
X255000Y20000D02*
D03*
X250000Y10000D02*
D03*
X240000Y290000D02*
D03*
X245000Y280000D02*
D03*
X240000Y270000D02*
D03*
X245000Y260000D02*
D03*
X240000Y250000D02*
D03*
Y50000D02*
D03*
X245000Y40000D02*
D03*
X240000Y30000D02*
D03*
X245000Y20000D02*
D03*
X240000Y10000D02*
D03*
X230000Y290000D02*
D03*
X235000Y280000D02*
D03*
X230000Y270000D02*
D03*
X235000Y260000D02*
D03*
X230000Y250000D02*
D03*
Y50000D02*
D03*
X235000Y40000D02*
D03*
X230000Y30000D02*
D03*
X235000Y20000D02*
D03*
X230000Y10000D02*
D03*
X220000Y290000D02*
D03*
X225000Y280000D02*
D03*
X220000Y230000D02*
D03*
Y70000D02*
D03*
X225000Y20000D02*
D03*
X220000Y10000D02*
D03*
X210000Y290000D02*
D03*
X215000Y280000D02*
D03*
Y240000D02*
D03*
Y60000D02*
D03*
Y20000D02*
D03*
X210000Y10000D02*
D03*
X200000Y290000D02*
D03*
X205000Y280000D02*
D03*
Y240000D02*
D03*
Y60000D02*
D03*
Y20000D02*
D03*
X200000Y10000D02*
D03*
X190000Y290000D02*
D03*
X195000Y280000D02*
D03*
Y240000D02*
D03*
Y60000D02*
D03*
Y20000D02*
D03*
X190000Y10000D02*
D03*
X180000Y290000D02*
D03*
X185000Y280000D02*
D03*
Y240000D02*
D03*
Y60000D02*
D03*
Y20000D02*
D03*
X180000Y10000D02*
D03*
X170000Y290000D02*
D03*
X175000Y280000D02*
D03*
Y20000D02*
D03*
X170000Y10000D02*
D03*
X160000Y290000D02*
D03*
X165000Y280000D02*
D03*
Y20000D02*
D03*
X160000Y10000D02*
D03*
X150000Y290000D02*
D03*
X155000Y280000D02*
D03*
Y20000D02*
D03*
X150000Y10000D02*
D03*
X140000Y290000D02*
D03*
X145000Y280000D02*
D03*
Y20000D02*
D03*
X140000Y10000D02*
D03*
X130000Y290000D02*
D03*
X135000Y280000D02*
D03*
Y20000D02*
D03*
X130000Y10000D02*
D03*
X120000Y290000D02*
D03*
X125000Y280000D02*
D03*
Y20000D02*
D03*
X120000Y10000D02*
D03*
X110000Y290000D02*
D03*
X115000Y280000D02*
D03*
Y240000D02*
D03*
Y60000D02*
D03*
Y20000D02*
D03*
X110000Y10000D02*
D03*
X100000Y290000D02*
D03*
X105000Y280000D02*
D03*
Y240000D02*
D03*
Y60000D02*
D03*
Y20000D02*
D03*
X100000Y10000D02*
D03*
X90000Y290000D02*
D03*
X95000Y280000D02*
D03*
Y240000D02*
D03*
Y60000D02*
D03*
Y20000D02*
D03*
X90000Y10000D02*
D03*
X80000Y290000D02*
D03*
X85000Y280000D02*
D03*
Y240000D02*
D03*
X80000Y230000D02*
D03*
Y70000D02*
D03*
X85000Y60000D02*
D03*
Y20000D02*
D03*
X80000Y10000D02*
D03*
X70000Y290000D02*
D03*
X75000Y280000D02*
D03*
X70000Y270000D02*
D03*
Y250000D02*
D03*
Y50000D02*
D03*
Y30000D02*
D03*
X75000Y20000D02*
D03*
X70000Y10000D02*
D03*
X60000Y290000D02*
D03*
X65000Y280000D02*
D03*
X60000Y270000D02*
D03*
X65000Y260000D02*
D03*
X60000Y250000D02*
D03*
Y50000D02*
D03*
X65000Y40000D02*
D03*
X60000Y30000D02*
D03*
X65000Y20000D02*
D03*
X60000Y10000D02*
D03*
X50000Y290000D02*
D03*
X55000Y280000D02*
D03*
X50000Y270000D02*
D03*
X55000Y260000D02*
D03*
X50000Y250000D02*
D03*
Y50000D02*
D03*
X55000Y40000D02*
D03*
X50000Y30000D02*
D03*
X55000Y20000D02*
D03*
X50000Y10000D02*
D03*
X40000Y290000D02*
D03*
X45000Y280000D02*
D03*
X40000Y270000D02*
D03*
X45000Y260000D02*
D03*
Y40000D02*
D03*
X40000Y30000D02*
D03*
X45000Y20000D02*
D03*
X40000Y10000D02*
D03*
X30000Y290000D02*
D03*
X35000Y280000D02*
D03*
X30000Y270000D02*
D03*
Y30000D02*
D03*
X35000Y20000D02*
D03*
X30000Y10000D02*
D03*
X20000Y290000D02*
D03*
X25000Y280000D02*
D03*
Y20000D02*
D03*
X20000Y10000D02*
D03*
X10000Y290000D02*
D03*
Y10000D02*
D03*
D24*
X286000Y30749D02*
D03*
X286416Y40299D02*
D03*
X286000Y183390D02*
D03*
Y250170D02*
D03*
Y49830D02*
D03*
X14000Y269250D02*
D03*
X13584Y259701D02*
D03*
X14000Y250170D02*
D03*
Y240630D02*
D03*
Y231090D02*
D03*
Y221550D02*
D03*
Y212010D02*
D03*
Y202470D02*
D03*
Y192930D02*
D03*
Y183390D02*
D03*
Y173850D02*
D03*
Y164310D02*
D03*
Y154770D02*
D03*
Y30749D02*
D03*
X13584Y40299D02*
D03*
X14000Y49830D02*
D03*
Y59370D02*
D03*
Y68910D02*
D03*
Y78450D02*
D03*
Y87990D02*
D03*
Y97530D02*
D03*
Y107070D02*
D03*
Y116610D02*
D03*
Y126150D02*
D03*
Y135690D02*
D03*
Y145230D02*
D03*
X286416Y259701D02*
D03*
X286000Y269250D02*
D03*
Y78450D02*
D03*
Y68910D02*
D03*
Y87990D02*
D03*
Y97530D02*
D03*
Y107070D02*
D03*
Y59370D02*
D03*
Y116610D02*
D03*
Y126150D02*
D03*
Y135690D02*
D03*
Y145230D02*
D03*
Y240630D02*
D03*
Y231090D02*
D03*
Y221550D02*
D03*
Y212010D02*
D03*
Y202470D02*
D03*
Y192930D02*
D03*
Y154770D02*
D03*
Y164310D02*
D03*
Y173850D02*
D03*
M02*
