M48
;Layer_Color=9474304
;FILE_FORMAT=4:4
METRIC,LZ
;TYPE=PLATED
T01F00S00C0.3000
T02F00S00C4.5000
%
T01
X0001Y0001
X0002
X0003
X0004
X0005
X0006
X0007
X0008
X0009
X001
X0011
X0012
X0013
X0014
X0015
X0016
X0017
X0018
X0019
X00195Y0002
X00185
X00175
X00165
X00155
X00145
X00135
X00125
X00115
X00105
X00095
X00085
X00075
X00065
X00055
X00045
X00035
X00025
X0003Y0003
X0004
X0005
X0006
X0007
X00065Y0004
X00055
X00045
X0005Y0005
X0006
X0007
X00085Y0006
X00095
X00105
X00115
X00124Y0005
X00130939Y00034357
Y00065643
X00169062
X00185Y0006
X00195
X00176Y0005
X00169062Y00034357
X0008Y0007
X00014Y0006891
Y0005937
Y0004983
X00013584Y00040299
X00014Y00030749
Y0007845
Y0008799
Y0009753
Y0010707
Y0011661
Y0012615
Y0013569
Y0014523
Y0015477
Y0016431
Y0017385
Y0018339
Y0019293
X00286
Y0018339
Y0017385
Y0016431
Y0015477
Y0014523
Y0013569
Y0012615
Y0011661
Y0010707
Y0009753
Y0008799
Y0007845
Y0006891
Y0005937
Y0004983
X00286416Y00040299
X00286Y00030749
X0027Y0003
X0026
X0025
X0024
X0023
X00235Y0004
X00245
X00255
X0025Y0005
X0024
X0023
X00215Y0006
X00205
X0022Y0007
X00225Y0002
X00235
X00245
X00255
X00265
X00275
X0027Y0001
X0028
X0029
X0026
X0025
X0024
X0023
X0022
X0021
X002
X00205Y0002
X00215
X0022Y0023
X00215Y0024
X00205
X0023Y0025
X0024
X0025
X00255Y0026
X00245
X00235
X0023Y0027
X0024
X0025
X0026
X0027
X00275Y0028
X00265
X00255
X00245
X00235
X00225
X00215
X00205
X002Y0029
X0021
X0022
X0023
X0024
X0025
X0026
X0027
X0028
X0029
X00286Y0026925
X00286416Y00259701
X00286Y0025017
Y0024063
Y0023109
Y0022155
Y0021201
Y0020247
X00195Y0024
X00185
X00174Y0025
X00169062Y00265643
X00165Y0028
X00175
X00185
X00195
X0019Y0029
X0018
X0017
X0016
X0015
X0014
X0013
X0012
X0011
X001
X0009
X0008
X0007
X0006
X0005
X0004
X0003
X0002
X0001
X00014Y0026925
X00013584Y00259701
X00014Y0025017
Y0024063
Y0023109
Y0022155
Y0021201
Y0020247
X0005Y0025
X0006
X0007
X00065Y0026
X00055
X00045
X0004Y0027
X0005
X0006
X0007
X00075Y0028
X00085
X00095
X00105
X00115
X00125
X00135
X00145
X00155
X00130939Y00265643
X00124Y0025
X00115Y0024
X00105
X00095
X00085
X0008Y0023
X00130939Y00234357
X00169062
X00065Y0028
X00055
X00045
X00035
X00025
X0003Y0027
T02
X0015Y0005
Y0025
M30
