G04*
G04 #@! TF.GenerationSoftware,Altium Limited,Altium Designer,25.8.1 (18)*
G04*
G04 Layer_Color=65535*
%FSLAX44Y44*%
%MOMM*%
G71*
G04*
G04 #@! TF.SameCoordinates,EA15CCC8-5DA6-4286-B6DC-50CED7DD3932*
G04*
G04*
G04 #@! TF.FilePolarity,Positive*
G04*
G01*
G75*
%ADD10C,0.2500*%
%ADD11C,0.3000*%
%ADD12C,0.2000*%
%ADD13C,0.2540*%
D10*
X54700Y225000D02*
G03*
X54700Y225000I-1250J0D01*
G01*
X247800Y75000D02*
G03*
X247800Y75000I-1250J0D01*
G01*
D11*
X146000Y80000D02*
X150000Y84000D01*
X142000D02*
X150000D01*
X142000D02*
X146000Y80000D01*
Y112000D01*
X146000Y222000D02*
X150000Y218000D01*
X142000D02*
X150000D01*
X142000D02*
X146000Y222000D01*
Y192000D02*
Y222000D01*
D12*
X74250Y238250D02*
X99500D01*
X74250Y61750D02*
X99500D01*
Y72750D01*
Y227250D02*
Y238250D01*
X207750Y253000D02*
X212250D01*
X207750Y267000D02*
X212250D01*
X200500Y61750D02*
X225750D01*
X200500Y238250D02*
X225750D01*
X200500Y227250D02*
Y238250D01*
Y61750D02*
Y72750D01*
X207750Y33000D02*
X212250D01*
X207750Y47000D02*
X212250D01*
D13*
X149775Y173303D02*
Y183460D01*
X142157D01*
Y178382D01*
Y183460D01*
X134540D01*
Y168225D02*
Y163147D01*
Y165686D01*
X149775D01*
Y168225D01*
X134540Y152990D02*
Y147912D01*
X137079Y145372D01*
X142157D01*
X144697Y147912D01*
Y152990D01*
X142157Y155529D01*
X137079D01*
X134540Y152990D01*
X144697Y137755D02*
Y132676D01*
X142157Y130137D01*
X134540D01*
Y137755D01*
X137079Y140294D01*
X139618Y137755D01*
Y130137D01*
X147236Y122520D02*
X144697D01*
Y125059D01*
Y119981D01*
Y122520D01*
X137079D01*
X134540Y119981D01*
X171236Y197303D02*
X173775Y199842D01*
Y204921D01*
X171236Y207460D01*
X168697D01*
X166158Y204921D01*
Y199842D01*
X163618Y197303D01*
X161079D01*
X158540Y199842D01*
Y204921D01*
X161079Y207460D01*
X173775Y192225D02*
X158540D01*
X166158D01*
X168697Y189686D01*
Y184607D01*
X166158Y182068D01*
X158540D01*
Y174451D02*
Y169372D01*
X161079Y166833D01*
X166158D01*
X168697Y169372D01*
Y174451D01*
X166158Y176990D01*
X161079D01*
X158540Y174451D01*
X168697Y161755D02*
X158540D01*
X163618D01*
X166158Y159216D01*
X168697Y156676D01*
Y154137D01*
X171236Y143981D02*
X168697D01*
Y146520D01*
Y141441D01*
Y143981D01*
X161079D01*
X158540Y141441D01*
Y116050D02*
Y110971D01*
X161079Y108432D01*
X166158D01*
X168697Y110971D01*
Y116050D01*
X166158Y118589D01*
X161079D01*
X158540Y116050D01*
X168697Y103354D02*
X158540D01*
X163618D01*
X166158Y100815D01*
X168697Y98275D01*
Y95736D01*
X78804Y272383D02*
Y287617D01*
X86422D01*
X88961Y285078D01*
Y280000D01*
X86422Y277461D01*
X78804D01*
X83883D02*
X88961Y272383D01*
X104196D02*
X94039D01*
X104196Y282539D01*
Y285078D01*
X101657Y287617D01*
X96578D01*
X94039Y285078D01*
X81343Y12383D02*
Y27617D01*
X88961D01*
X91500Y25078D01*
Y20000D01*
X88961Y17461D01*
X81343D01*
X86422D02*
X91500Y12383D01*
X96578D02*
X101657D01*
X99118D01*
Y27617D01*
X96578Y25078D01*
X205961Y285078D02*
X203422Y287617D01*
X198343D01*
X195804Y285078D01*
Y274922D01*
X198343Y272383D01*
X203422D01*
X205961Y274922D01*
X221196Y272383D02*
X211039D01*
X221196Y282539D01*
Y285078D01*
X218657Y287617D01*
X213578D01*
X211039Y285078D01*
X208500Y25078D02*
X205961Y27617D01*
X200882D01*
X198343Y25078D01*
Y14922D01*
X200882Y12383D01*
X205961D01*
X208500Y14922D01*
X213578Y12383D02*
X218657D01*
X216118D01*
Y27617D01*
X213578Y25078D01*
X67461Y257617D02*
X62382D01*
X64922D01*
Y244922D01*
X62382Y242383D01*
X59843D01*
X57304Y244922D01*
X82696Y242383D02*
X72539D01*
X82696Y252539D01*
Y255078D01*
X80157Y257617D01*
X75078D01*
X72539Y255078D01*
X230000Y257617D02*
X224922D01*
X227461D01*
Y244922D01*
X224922Y242383D01*
X222383D01*
X219843Y244922D01*
X235078Y242383D02*
X240157D01*
X237618D01*
Y257617D01*
X235078Y255078D01*
M02*
